<svg t="1745057594151" class="icon" viewBox="0 0 1025 1024" version="1.1" xmlns="http://www.w3.org/2000/svg" p-id="6939" width="200" height="200"><path d="M818.6 1003H207.4c-77.3 0-140-62.7-140-140V408.3c0-77.3 62.7-140 140-140h611.2c77.3 0 140 62.7 140 140V863c0 77.3-62.7 140-140 140z" fill="#01B782" opacity=".25" p-id="6940"></path><path d="M818.6 135h-41.3V51c0-22.1-17.9-40-40-40s-40 17.9-40 40v84H328.7V51c0-22.1-17.9-40-40-40s-40 17.9-40 40v84h-41.3c-77.3 0-140 62.7-140 140v454.7c0 77.3 62.7 140 140 140h611.2c77.3 0 140-62.7 140-140V275c0-77.3-62.7-140-140-140z" fill="#01B782" p-id="6941"></path><path d="M482.4 643.7c-10.2 0-20.5-3.9-28.3-11.7L324 501.8c-15.6-15.6-15.6-40.9 0-56.6s40.9-15.6 56.6 0L482.4 547l182-182c15.6-15.6 40.9-15.6 56.6 0 15.6 15.6 15.6 40.9 0 56.6L510.7 632c-7.9 7.8-18.1 11.7-28.3 11.7z" fill="#FFFFFF" p-id="6942"></path></svg>